<svg width="36" height="21" viewBox="0 0 36 21" fill="none" xmlns="http://www.w3.org/2000/svg">
<path d="M18.0989 20.7306H20.1934C20.1934 20.7306 20.8266 20.6605 21.1487 20.3121C21.4466 19.9922 21.4357 19.3919 21.4357 19.3919C21.4357 19.3919 21.3941 16.5809 22.6999 16.1669C23.9859 15.7593 25.6379 18.8836 27.3885 20.0864C28.7118 20.9957 29.7174 20.7963 29.7174 20.7963L34.3994 20.7306C34.3994 20.7306 36.8489 20.5794 35.6877 18.6536C35.5935 18.4958 35.0107 17.2295 32.2063 14.6266C29.2705 11.9011 29.6648 12.3437 33.201 7.63099C35.3547 4.76087 36.2157 3.00813 35.9462 2.25883C35.6899 1.54458 34.1058 1.733 34.1058 1.733L28.8388 1.76368C28.8388 1.76368 28.4489 1.7111 28.1575 1.88418C27.8748 2.05507 27.693 2.44944 27.693 2.44944C27.693 2.44944 26.8582 4.67104 25.7453 6.55962C23.3988 10.5449 22.4589 10.7553 22.0754 10.5077C21.1837 9.93147 21.4072 8.18968 21.4072 6.95399C21.4072 3.09138 21.9922 1.48105 20.2657 1.06477C19.6917 0.926742 19.2711 0.834723 17.8053 0.819387C15.9255 0.799668 14.3327 0.82596 13.4322 1.26634C12.8319 1.55992 12.3696 2.21501 12.6523 2.25226C13.0006 2.29827 13.7893 2.46478 14.2078 3.03442C14.749 3.76838 14.7293 5.42034 14.7293 5.42034C14.7293 5.42034 15.0404 9.96652 14.0041 10.5318C13.292 10.9196 12.317 10.1286 10.2247 6.51142C9.15334 4.66009 8.34269 2.61157 8.34269 2.61157C8.34269 2.61157 8.18714 2.23035 7.90889 2.02659C7.57149 1.77901 7.09825 1.70014 7.09825 1.70014L2.08978 1.73081C2.08978 1.73081 1.33829 1.75272 1.06223 2.07917C0.816848 2.37057 1.04251 2.97088 1.04251 2.97088C1.04251 2.97088 4.96428 12.1443 9.4031 16.7694C13.476 21.0088 18.0989 20.7306 18.0989 20.7306Z" fill="#1E88E5"/>
</svg>
